HIERARCHY
ROOT Hips
{
	OFFSET -0.001795 -0.223333 0.028219
	CHANNELS 6 Xposition Yposition Zposition Zrotation Yrotation Xrotation 
	JOINT LeftUpLeg
	{
		OFFSET 0.069520 -0.091406 -0.006815
		CHANNELS 3 Zrotation Yrotation Xrotation
		JOINT LeftLeg
		{
			OFFSET 0.034277 -0.375199 -0.004496
			CHANNELS 3 Zrotation Yrotation Xrotation
			JOINT LeftFoot
			{
				OFFSET -0.013596 -0.397961 -0.043693
				CHANNELS 3 Zrotation Yrotation Xrotation
				JOINT LeftToe
				{
					OFFSET 0.026358 -0.055791 0.119288
					CHANNELS 3 Zrotation Yrotation Xrotation
					End Site
					{
						OFFSET 0.000000 0.000000 0.000000
					}
				}
			}
		}
	}
	JOINT RightUpLeg
	{
		OFFSET -0.067670 -0.090522 -0.004320
		CHANNELS 3 Zrotation Yrotation Xrotation
		JOINT RightLeg
		{
			OFFSET -0.038290 -0.382569 -0.008850
			CHANNELS 3 Zrotation Yrotation Xrotation
			JOINT RightFoot
			{
				OFFSET 0.015774 -0.398415 -0.042312
				CHANNELS 3 Zrotation Yrotation Xrotation
				JOINT RightToe
				{
					OFFSET -0.025372 -0.048144 0.123348
					CHANNELS 3 Zrotation Yrotation Xrotation
					End Site
					{
						OFFSET 0.000000 0.000000 0.000000
					}
				}
			}
		}
	}
	JOINT Spine
	{
		OFFSET -0.002533 0.108963 -0.026696
		CHANNELS 3 Zrotation Yrotation Xrotation
		JOINT Spine1
		{
			OFFSET 0.005487 0.135180 0.001092
			CHANNELS 3 Zrotation Yrotation Xrotation
			JOINT Spine2
			{
				OFFSET 0.001457 0.052922 0.025425
				CHANNELS 3 Zrotation Yrotation Xrotation
				JOINT Neck
				{
					OFFSET -0.002778 0.213870 -0.042857
					CHANNELS 3 Zrotation Yrotation Xrotation
					JOINT Head
					{
						OFFSET 0.005152 0.064970 0.051349
						CHANNELS 3 Zrotation Yrotation Xrotation
						End Site
						{
							OFFSET 0.000000 0.000000 0.000000
						}
					}
				}
				JOINT LeftShoulder
				{
					OFFSET 0.078845 0.121749 -0.034090
					CHANNELS 3 Zrotation Yrotation Xrotation
					JOINT LeftArm
					{
						OFFSET 0.090977 0.030469 -0.008868
						CHANNELS 3 Zrotation Yrotation Xrotation
						JOINT LeftForeArm
						{
							OFFSET 0.259612 -0.012772 -0.027456
							CHANNELS 3 Zrotation Yrotation Xrotation
							JOINT LeftHand
							{
								OFFSET 0.249234 0.008986 -0.001171
								CHANNELS 3 Zrotation Yrotation Xrotation
								End Site
								{
									OFFSET 0.000000 0.000000 0.000000
								}
							}
						}
					}
				}
				JOINT RightShoulder
				{
					OFFSET -0.081759 0.118833 -0.038615
					CHANNELS 3 Zrotation Yrotation Xrotation
					JOINT RightArm
					{
						OFFSET -0.096012 0.032551 -0.009143
						CHANNELS 3 Zrotation Yrotation Xrotation
						JOINT RightForeArm
						{
							OFFSET -0.253742 -0.013329 -0.021401
							CHANNELS 3 Zrotation Yrotation Xrotation
							JOINT RightHand
							{
								OFFSET -0.255298 0.007772 -0.005559
								CHANNELS 3 Zrotation Yrotation Xrotation
								End Site
								{
									OFFSET 0.000000 0.000000 0.000000
								}
							}
						}
					}
				}
			}
		}
	}
}
MOTION
Frames: 10
Frame Time: 0.050000
-0.029873 0.934070 0.014801 -1.558004 11.499551 -4.916345 -8.691374 1.667209 11.183430 5.406915 -0.142673 -4.870794 1.469821 9.531458 16.300833 0.000000 0.000000 0.000000 -2.957799 1.128275 -22.673697 3.318681 -8.588126 91.498023 -8.672142 -21.035184 15.707035 0.000000 0.000000 0.000000 -2.991059 -0.860442 21.906459 4.101627 -3.791173 12.702858 3.545546 -7.491935 -10.155263 -6.760594 5.037965 -1.922144 0.000000 0.000000 0.000000 -22.830367 -1.793586 -0.540002 -35.042894 -4.705658 -2.201569 -147.278697 -66.392523 138.637790 0.000000 0.000000 0.000000 14.579299 2.542200 -1.360995 39.451036 -20.601458 -8.797529 75.020679 48.485053 37.015895 0.000000 0.000000 0.000000 
-0.029917 0.974720 0.015256 -3.883412 11.840932 -2.708885 -4.769212 1.971954 19.663926 5.633068 0.395631 -13.697635 -2.687647 7.791646 28.768485 0.000000 0.000000 0.000000 0.961156 2.302536 -30.597142 5.393570 -7.198376 67.549150 -9.508250 -21.571747 16.767660 0.000000 0.000000 0.000000 -0.029118 -1.094792 18.079877 7.140124 -6.200049 14.448191 3.640971 -10.755894 -12.569080 -9.796774 7.581652 1.501655 0.000000 0.000000 0.000000 -18.196563 -2.709502 0.866838 -39.527606 -7.566454 -1.533241 -154.066313 -60.767388 146.980164 0.000000 0.000000 0.000000 9.405786 1.090947 -1.536715 38.206993 -26.404919 -10.291745 76.476463 45.150718 34.024310 0.000000 0.000000 0.000000 
-0.026179 1.008546 0.020339 -3.813851 11.104241 0.125465 -3.556568 1.987827 22.344034 5.950554 -0.107209 -5.781676 -4.674326 6.854651 33.978587 0.000000 0.000000 0.000000 3.812017 3.084341 -30.253889 4.499705 -2.538979 38.247607 -8.495524 -18.910241 24.770630 0.000000 0.000000 0.000000 1.529324 -0.930686 13.632401 7.477046 -6.974902 17.255546 5.541324 -12.643246 -15.464823 -13.235492 10.724612 3.868954 0.000000 0.000000 0.000000 -15.661425 -1.697114 0.893731 -40.767235 -3.486735 -2.689929 -153.471946 -54.304901 143.372357 0.000000 0.000000 0.000000 5.313661 -2.129299 -2.022930 37.903778 -29.763952 -11.487457 76.985043 41.645911 30.114971 0.000000 0.000000 0.000000 
-0.021080 1.013374 0.027912 -2.296482 12.468787 1.087690 -1.798126 1.481234 21.507702 4.020838 -2.050417 17.247554 -5.004097 5.343868 29.748619 0.000000 0.000000 0.000000 4.499749 2.731423 -24.748533 3.795323 -1.202223 22.245972 -8.770987 -18.576976 30.586970 0.000000 0.000000 0.000000 1.145490 -0.637220 10.436655 10.044826 -9.388667 18.561362 2.781553 -12.275510 -15.036477 -14.614646 11.795009 4.548841 0.000000 0.000000 0.000000 -17.548703 2.164138 -1.520966 -40.070514 2.139665 -4.300212 -142.196599 -47.214763 114.827049 0.000000 0.000000 0.000000 3.453962 -2.583425 -1.618372 40.271312 -31.943066 -13.130955 77.708675 43.441142 32.673814 0.000000 0.000000 0.000000 
-0.019146 0.985028 0.034491 -0.384404 14.029588 0.490900 0.331980 0.831176 17.371364 0.040774 -4.728433 44.769000 -2.267298 6.353786 23.611240 0.000000 0.000000 0.000000 4.552957 2.255899 -19.592695 4.560154 -1.961528 26.217114 -11.942217 -22.039623 36.121335 0.000000 0.000000 0.000000 -0.113847 -0.460311 9.668791 8.347337 -8.573092 19.317249 3.470305 -9.138825 -13.911751 -12.132704 9.482953 3.840639 0.000000 0.000000 0.000000 -19.359667 3.672457 -3.101467 -38.212340 7.934729 -5.724856 -129.417103 -48.496516 94.675731 0.000000 0.000000 0.000000 6.605879 -1.933369 -1.968257 43.454208 -32.729493 -14.353500 77.659297 49.171025 38.922358 0.000000 0.000000 0.000000 
-0.023021 0.940523 0.031617 -0.474190 11.304803 -1.668159 3.563729 0.155053 6.521179 -8.841263 -1.583581 74.023211 1.737443 9.248568 18.328423 0.000000 0.000000 0.000000 7.852588 2.233338 -14.649525 2.771113 -1.479092 33.310678 -15.143994 -25.682596 40.852889 0.000000 0.000000 0.000000 -0.271653 -0.645129 13.141197 5.024100 -5.986625 20.668292 3.385982 -2.002610 -12.976913 -11.197055 7.783948 -3.035414 0.000000 0.000000 0.000000 -19.345229 5.166524 -5.169868 -37.340008 13.711291 -6.962663 -112.823668 -49.604991 72.751424 0.000000 0.000000 0.000000 14.777703 -0.369312 -1.970451 44.464969 -22.140313 -10.489838 74.649907 61.100493 49.539754 0.000000 0.000000 0.000000 
-0.028061 0.914989 0.019477 -0.462037 9.204439 -3.539015 5.275490 -0.626835 -10.056584 -13.402744 4.589044 92.885134 6.165649 14.561162 14.047368 0.000000 0.000000 0.000000 9.533349 0.694165 -4.165260 0.784630 -0.005660 22.960620 -21.919151 -34.177747 35.989916 0.000000 0.000000 0.000000 -2.131740 -0.605104 16.924436 3.094438 -3.902014 18.799033 2.630867 7.748189 -11.182279 -9.005180 6.206602 -5.418463 0.000000 0.000000 0.000000 -19.826272 4.654631 -6.996784 -34.016362 20.242552 -7.771938 -98.815289 -51.061426 57.794212 0.000000 0.000000 0.000000 14.180220 1.973318 0.956655 46.937490 -10.039244 -6.999341 94.472806 71.708345 82.345384 0.000000 0.000000 0.000000 
-0.029994 0.927750 0.010898 2.465553 7.363831 -2.063888 3.175946 -2.340068 -27.475310 -15.996401 9.836530 90.702558 10.018652 20.292937 18.585037 0.000000 0.000000 0.000000 7.618253 -1.513003 7.942522 -2.923793 0.527893 2.989040 -10.338382 -23.988636 10.793713 0.000000 0.000000 0.000000 -4.869228 -0.181957 18.445698 -1.220498 -0.080809 12.381136 3.154854 15.230123 -8.972759 -4.930648 3.601454 -3.908589 0.000000 0.000000 0.000000 -16.666122 5.277098 -7.538368 -28.907996 23.046243 -7.192966 -97.602613 -45.989827 49.098004 0.000000 0.000000 0.000000 11.536270 2.906859 2.507009 48.991040 -3.377327 -4.936523 126.153363 72.999628 123.484049 0.000000 0.000000 0.000000 
-0.029381 0.961262 0.012401 4.339850 7.062396 0.705327 -1.365907 -4.693249 -36.099670 -13.519419 5.455876 69.762078 10.810307 21.750895 17.700673 0.000000 0.000000 0.000000 5.028392 -3.055297 18.040141 -3.952887 -0.185511 -8.329927 -3.526112 -11.239254 14.169330 0.000000 0.000000 0.000000 -7.050293 0.225548 15.465979 -2.958772 1.020739 11.341679 1.245673 20.407048 -10.714898 -1.017151 0.272424 -0.906223 0.000000 0.000000 0.000000 -12.476968 7.823356 -7.610491 -25.104305 25.382517 -6.906879 -97.371072 -41.034881 41.661794 0.000000 0.000000 0.000000 9.310235 3.470047 3.282548 49.859397 -1.048453 -3.705459 138.111407 69.416717 139.376623 0.000000 0.000000 0.000000 
-0.027283 0.994728 0.021255 4.653843 9.496361 2.571471 -7.216215 -6.524302 -34.847322 -2.770856 -1.579745 37.980860 2.850763 13.167696 25.629729 0.000000 0.000000 0.000000 3.173735 -3.897661 23.755570 -2.816454 0.088627 -3.869324 -0.864113 -6.234648 15.408385 0.000000 0.000000 0.000000 -7.909283 0.300841 12.615237 -5.254510 2.185762 10.621958 3.155153 21.869496 -12.409701 -0.462579 -1.474466 3.607511 0.000000 0.000000 0.000000 -11.974859 7.935798 -7.576486 -21.887391 29.169016 -6.736046 -99.422742 -37.627777 39.420547 0.000000 0.000000 0.000000 7.667440 3.756151 3.280153 50.494315 -3.198268 -4.097872 144.684643 66.259746 146.959269 0.000000 0.000000 0.000000 
